<svg width="620" height="520" viewBox="0 0 620 520" fill="none" xmlns="http://www.w3.org/2000/svg">
  <rect width="620" height="520" rx="36" fill="#F5F5F1"/>
  <rect y="378" width="620" height="142" fill="#D8CDC0"/>
  <rect x="118" y="250" width="282" height="156" rx="12" fill="#7E4D31"/>
  <rect x="118" y="224" width="282" height="36" rx="12" fill="#9A6646"/>
  <rect x="148" y="252" width="18" height="154" fill="#9F6E4D"/>
  <rect x="192" y="252" width="18" height="154" fill="#9F6E4D"/>
  <rect x="236" y="252" width="18" height="154" fill="#9F6E4D"/>
  <rect x="280" y="252" width="18" height="154" fill="#9F6E4D"/>
  <rect x="324" y="252" width="18" height="154" fill="#9F6E4D"/>
  <rect x="368" y="252" width="18" height="154" fill="#9F6E4D"/>
  <rect x="80" y="166" width="110" height="96" rx="8" fill="#FFFFFF" stroke="#7B7B79" stroke-width="5"/>
  <rect x="182" y="184" width="126" height="78" rx="8" fill="#FFFFFF" stroke="#848481" stroke-width="5"/>
  <rect x="298" y="202" width="150" height="60" rx="8" fill="#FFFFFF" stroke="#989895" stroke-width="5"/>
  <rect x="474" y="96" width="8" height="126" rx="4" fill="#565654"/>
  <path d="M478 96C501 92 522 103 534 124C519 139 495 142 476 132L478 96Z" fill="#383837"/>
  <rect x="506" y="202" width="10" height="60" rx="5" fill="#4D4D49"/>
  <rect x="64" y="132" width="18" height="90" rx="9" fill="#C49A6C"/>
  <ellipse cx="73" cy="132" rx="14" ry="8" fill="#E2B784"/>
  <rect x="92" y="148" width="18" height="70" rx="9" fill="#8A5B3E"/>
</svg>
