<svg width="620" height="520" viewBox="0 0 620 520" fill="none" xmlns="http://www.w3.org/2000/svg">
  <rect width="620" height="520" rx="36" fill="#AE7B56"/>
  <rect y="340" width="620" height="180" fill="#7B563C"/>
  <rect x="54" y="165" width="170" height="176" rx="26" fill="#B69171"/>
  <rect x="88" y="210" width="238" height="116" rx="22" fill="#E8D7C7"/>
  <rect x="120" y="302" width="196" height="18" rx="9" fill="#8B5A3D"/>
  <rect x="130" y="317" width="16" height="74" rx="8" fill="#6B422F"/>
  <rect x="286" y="317" width="16" height="74" rx="8" fill="#6B422F"/>
  <rect x="335" y="264" width="90" height="52" rx="14" fill="#D8B38E"/>
  <rect x="358" y="299" width="16" height="88" rx="8" fill="#744A33"/>
  <rect x="399" y="299" width="16" height="88" rx="8" fill="#744A33"/>
  <path d="M252 70C283 44 334 43 366 71C341 96 278 97 252 70Z" fill="#8E603E"/>
  <path d="M309 70V148" stroke="#6D4932" stroke-width="5"/>
  <rect x="32" y="132" width="12" height="230" rx="6" fill="#A98767"/>
  <rect x="576" y="120" width="12" height="230" rx="6" fill="#8D6145"/>
  <circle cx="533" cy="136" r="10" fill="#8F5D3E"/>
  <rect x="526" y="146" width="14" height="56" rx="7" fill="#7A4B33"/>
</svg>
