<svg width="620" height="520" viewBox="0 0 620 520" fill="none" xmlns="http://www.w3.org/2000/svg">
  <rect width="620" height="520" rx="36" fill="#E8E4DD"/>
  <rect y="360" width="620" height="160" fill="#C2B29F"/>
  <rect x="0" y="116" width="620" height="128" fill="#B98F66"/>
  <rect x="0" y="244" width="620" height="12" fill="#9B7758"/>
  <rect x="56" y="218" width="170" height="138" rx="8" fill="#3B3A37"/>
  <rect x="68" y="190" width="148" height="40" rx="6" fill="#282824"/>
  <rect x="278" y="190" width="262" height="166" rx="10" fill="#C89E75"/>
  <rect x="278" y="162" width="262" height="34" rx="8" fill="#B1845D"/>
  <rect x="448" y="126" width="172" height="230" rx="10" fill="#2E2E2A"/>
  <rect x="486" y="132" width="98" height="194" rx="4" fill="#90AE62"/>
  <rect x="497" y="144" width="76" height="170" rx="3" fill="#C6E1F2"/>
  <rect x="302" y="304" width="108" height="52" rx="10" fill="#9F744E"/>
  <rect x="428" y="304" width="88" height="52" rx="10" fill="#9F744E"/>
  <rect x="70" y="298" width="68" height="22" rx="11" fill="#E8E0D8"/>
  <rect x="142" y="298" width="68" height="22" rx="11" fill="#E8E0D8"/>
</svg>
