<svg width="620" height="520" viewBox="0 0 620 520" fill="none" xmlns="http://www.w3.org/2000/svg">
  <rect width="620" height="520" rx="36" fill="#EEEDE8"/>
  <rect y="372" width="620" height="148" fill="#D2C8BC"/>
  <rect x="138" y="168" width="290" height="190" rx="18" fill="#935C38"/>
  <circle cx="233" cy="263" r="72" fill="#C08A53"/>
  <circle cx="332" cy="263" r="72" fill="#5C341E"/>
  <rect x="160" y="140" width="16" height="238" rx="8" fill="#7A4A2C"/>
  <rect x="394" y="140" width="16" height="238" rx="8" fill="#7A4A2C"/>
  <rect x="214" y="116" width="138" height="18" rx="9" fill="#B98154"/>
  <rect x="416" y="96" width="18" height="86" rx="9" fill="#CDA06F"/>
  <ellipse cx="425" cy="96" rx="10" ry="6" fill="#D7B484"/>
  <path d="M418 84C431 74 446 74 458 84C448 94 428 94 418 84Z" fill="#C2A066"/>
  <rect x="80" y="54" width="112" height="132" rx="8" fill="#F5F5F2" stroke="#B8BBB9" stroke-width="6"/>
  <path d="M108 108C126 84 160 84 178 108C160 130 126 130 108 108Z" fill="#D9DBD8"/>
  <rect x="216" y="64" width="84" height="104" rx="8" fill="#FFFFFF" stroke="#737679" stroke-width="6"/>
  <circle cx="258" cy="116" r="22" fill="#3C4045"/>
  <rect x="60" y="382" width="68" height="68" rx="10" fill="#B98E63"/>
</svg>
